<?xml version="1.0" encoding="UTF-8"?>
<svg xmlns="http://www.w3.org/2000/svg" xmlns:xlink="http://www.w3.org/1999/xlink" viewBox="0 0 100 100" width="100px" height="100px">
<g id="surface59864744">
<path style=" stroke:none;fill-rule:nonzero;fill:rgb(81.176472%,59.607846%,4.313726%);fill-opacity:1;" d="M 51.8125 6.5625 C 33.132812 6.984375 31.015625 20.632812 35 36.375 C 34.375 36.796875 33.101562 38.296875 33.3125 40.8125 C 33.9375 45.429688 35.828125 46.6875 36.875 46.6875 C 37.296875 49.835938 38.78125 53.148438 40.25 55.25 C 41.296875 56.71875 41.6875 58.609375 41.6875 60.5 C 41.6875 62.179688 41.710938 61.109375 41.5 63 C 41.289062 63.609375 40.992188 64.164062 40.625 64.6875 C 41.054688 66.304688 43.53125 74 52 74 C 60.671875 74 63 65.695312 63.25 64.6875 C 62.859375 64.171875 62.546875 63.609375 62.3125 63 C 62.101562 60.695312 62.0625 61.765625 62.0625 59.875 C 62.0625 58.195312 62.71875 56.757812 63.5625 55.5 C 65.03125 53.398438 66.453125 49.835938 66.875 46.6875 C 68.140625 46.6875 70.015625 45.429688 70.4375 40.8125 C 70.648438 38.296875 69.65625 36.796875 68.8125 36.375 C 70.914062 30.5 74.867188 12.265625 61.4375 10.375 C 59.96875 7.859375 56.429688 6.5625 51.8125 6.5625 Z M 66.5625 67.5 C 64.882812 71.96875 60.4375 78 52 78 C 43.554688 78 39.125 72.078125 37.375 67.5625 C 29.0625 72.679688 12.125 74.25 12.125 92 L 91.875 92 C 91.875 73.796875 75.015625 72.546875 66.5625 67.5 Z M 66.5625 67.5 "/>
</g>
</svg>
